# xmcd
#
# Track frame offsets:
#	150
#	19513
#	40158
#	63280
#	85805
#	101802
#	132723
#	150260
#	171390
#	192223
#
# Disc length: 2873 seconds
#
# Revision: 1
# Processed by: cddbd v1.5.2PL0 Copyright (c) Steve Scherf et al.
# Submitted via: audiograbber 1.83.01
#
DISCID=7c0b370a
DTITLE=Gerry Mulligan - 1957 - 1958
DYEAR=1900
DGENRE=Jazz
TTITLE0=Sextett
TTITLE1=Disk Jockey Jump
TTITLE2=Venus De Milo
TTITLE3=Revelation
TTITLE4=Black Nightgown
TTITLE5=Theme From I Want To Live
TTITLE6=Night Watch
TTITLE7=Frisco Club
TTITLE8=Barbara's Theme
TTITLE9=Life's A Funny Thing
EXTD=
EXTT0=
EXTT1=
EXTT2=
EXTT3=
EXTT4=
EXTT5=
EXTT6=
EXTT7=
EXTT8=
EXTT9=
PLAYORDER=
